<svg width="80" height="32" viewBox="0 0 80 32" fill="none" xmlns="http://www.w3.org/2000/svg">
<g clip-path="url(#clip0_7_25)">
<path d="M5.10304 6.70749V9.79588C5.10304 9.95539 5.11988 10.1163 5.17604 10.2662C5.37399 10.7942 5.87377 11.1118 6.40584 11.1118H13.9559C14.1187 11.1118 14.2844 11.1283 14.4388 11.1819C14.9807 11.3745 15.3078 11.8612 15.3078 12.3796V14.0655C15.3078 14.225 15.291 14.3858 15.2348 14.5357C15.0369 15.0624 14.5371 15.38 14.005 15.38H6.45357C6.29072 15.38 6.12506 15.3965 5.97204 15.4501C5.43014 15.6427 5.10304 16.1294 5.10304 16.6478V21.6036C5.10304 21.7631 5.08619 21.9239 5.03004 22.0738C4.83069 22.6005 4.33231 22.9181 3.80024 22.9181H1.29572C0.951768 22.9167 0.623261 22.782 0.38039 22.5455C0.137519 22.3076 0.00134277 21.9872 0.00134277 21.6531V2.7693C0.00134277 2.6098 0.0181893 2.44892 0.0743444 2.29903C0.272291 1.77101 0.772072 1.45337 1.30414 1.45337H15.3148C15.4777 1.45337 15.642 1.46987 15.795 1.52487C16.3355 1.71876 16.6612 2.20415 16.6612 2.72255V4.17325C16.6612 4.33963 16.6275 4.50464 16.5615 4.65864C16.4955 4.81265 16.4 4.95153 16.2793 5.06979C16.1586 5.18667 16.0154 5.28017 15.8567 5.3448C15.6981 5.40805 15.5296 5.44105 15.3584 5.44105H6.41286C6.24158 5.44105 6.07171 5.47268 5.91167 5.53593C5.75303 5.59919 5.60843 5.69269 5.4863 5.81095C5.36416 5.9292 5.2687 6.06946 5.20271 6.22346C5.13673 6.37747 5.10304 6.54385 5.10304 6.71024V6.70749Z" fill="#599240"/>
<path d="M34.3964 7.02116V22.3201C34.3964 22.4796 34.3319 22.6309 34.2167 22.7436C34.1016 22.8564 33.9444 22.9196 33.7815 22.9196H30.3519C30.189 22.9196 30.0318 22.8564 29.9167 22.7436C29.8015 22.6309 29.737 22.4782 29.737 22.3201C29.737 22.2101 29.7061 22.1015 29.6471 22.0066C29.5882 21.9117 29.5039 21.8347 29.4028 21.7852C29.3018 21.7357 29.1881 21.7123 29.0757 21.722C28.962 21.7302 28.8539 21.7701 28.7627 21.8347C28.3443 22.1414 27.8895 22.3971 27.4079 22.5979C26.48 22.9843 25.4804 23.1795 24.4724 23.1727C22.2473 23.1727 20.484 22.5498 19.1812 21.3012C17.8784 20.054 17.2298 18.2018 17.234 15.7446V7.02116C17.234 6.94278 17.2495 6.8644 17.2804 6.79152C17.3112 6.71864 17.3576 6.65264 17.4137 6.59626C17.4713 6.54126 17.5387 6.49726 17.6145 6.46701C17.6889 6.43676 17.7703 6.42163 17.8503 6.42163H21.5327C21.6956 6.42163 21.8514 6.48626 21.9651 6.59901C22.0802 6.71039 22.1434 6.86303 22.1434 7.02116V15.0337C22.1434 17.6917 23.2876 19.0213 25.5773 19.02C26.7537 19.02 27.6985 18.6473 28.4117 17.902C29.1249 17.1568 29.4829 16.0471 29.4857 14.5744V7.02116C29.4857 6.86165 29.5503 6.71039 29.6654 6.59764C29.7805 6.48626 29.9377 6.42163 30.1006 6.42163H33.7745C33.8559 6.42163 33.9374 6.43538 34.0118 6.46563C34.0876 6.49588 34.1564 6.53989 34.2139 6.59489C34.2715 6.65127 34.3178 6.71727 34.3487 6.79015C34.3796 6.86303 34.3964 6.9414 34.3964 7.02116Z" fill="#599240"/>
<path d="M54.6108 0.734161V22.3488C54.6108 22.423 54.5954 22.4973 54.5673 22.566C54.5378 22.6348 54.4957 22.698 54.441 22.7517C54.3876 22.8039 54.3216 22.8466 54.2514 22.8754C54.1813 22.9043 54.104 22.9181 54.0282 22.9181H50.5031C50.4259 22.9181 50.3501 22.9029 50.2799 22.8754C50.2083 22.8466 50.1451 22.8053 50.0904 22.7517C50.0356 22.6994 49.9921 22.6362 49.964 22.566C49.9345 22.4973 49.9191 22.423 49.9205 22.3488C49.9205 22.2429 49.8882 22.1384 49.8306 22.049C49.7731 21.9596 49.6902 21.8868 49.592 21.84C49.4937 21.7933 49.3842 21.774 49.2761 21.785C49.168 21.796 49.0641 21.8359 48.9785 21.9019C47.8484 22.7421 46.3996 23.1628 44.6307 23.1642C43.1187 23.1834 41.6264 22.8232 40.2983 22.1191C39.0123 21.4316 37.9566 20.4003 37.2561 19.1463C36.5205 17.8578 36.1541 16.3645 36.1541 14.6691C36.1541 12.9736 36.5219 11.4817 37.2561 10.1918C37.9566 8.93642 39.0123 7.90374 40.2983 7.21621C41.6264 6.51218 43.1173 6.15191 44.6307 6.17116C46.2929 6.17116 47.6757 6.56443 48.7805 7.35097C48.8676 7.41147 48.9687 7.44722 49.0768 7.45547C49.1834 7.46235 49.2901 7.44172 49.3842 7.39359C49.4797 7.34547 49.5597 7.27396 49.6144 7.18458C49.6692 7.09658 49.6987 6.99483 49.7001 6.89032V0.734161C49.7001 0.582904 49.7618 0.438522 49.8713 0.332642C49.9808 0.225388 50.1297 0.16626 50.2841 0.16626H54.0296C54.1841 0.16626 54.3329 0.225388 54.4424 0.332642C54.5519 0.438522 54.6136 0.584279 54.6136 0.734161H54.6108ZM48.5643 17.9967C49.3814 17.1675 49.7913 16.0579 49.7913 14.6691C49.7913 13.2802 49.3828 12.1706 48.5643 11.3414C47.7389 10.5452 46.6242 10.0997 45.4618 10.0997C44.2994 10.0997 43.1847 10.5452 42.3578 11.3414C41.5393 12.1692 41.1308 13.2789 41.1308 14.6691C41.1308 16.0592 41.5407 17.1689 42.3606 17.9967C43.1861 18.7929 44.3008 19.2384 45.4632 19.2384C46.6256 19.2384 47.7403 18.7915 48.5657 17.9967H48.5643Z" fill="#599240"/>
<path d="M60.8582 22.0752C59.4838 21.389 58.334 20.3426 57.5352 19.0541C56.7266 17.7286 56.3124 16.2105 56.3391 14.6691C56.3124 13.1249 56.7294 11.6054 57.5408 10.2799C58.3368 8.99417 59.4852 7.94913 60.8582 7.26434C62.3491 6.54794 63.9902 6.17529 65.6538 6.17529C67.3174 6.17529 68.9586 6.54794 70.4481 7.26434C71.8169 7.95188 72.9638 8.99555 73.7598 10.2799C74.5699 11.6068 74.984 13.1262 74.9573 14.6691C74.984 16.2105 74.5699 17.7286 73.7598 19.0541C72.9652 20.3384 71.8211 21.3849 70.4537 22.0752C68.9628 22.7916 67.3216 23.1642 65.658 23.1642C63.9945 23.1642 62.3533 22.7916 60.8624 22.0752H60.8568H60.8582ZM68.7634 17.9967C69.5777 17.1676 69.9834 16.0579 69.9834 14.6691C69.9834 13.2802 69.5791 12.1706 68.7704 11.3414C67.9604 10.5177 66.9257 10.1052 65.6665 10.1052C65.0867 10.0887 64.5097 10.1891 63.972 10.4036C63.4343 10.6181 62.95 10.9385 62.5485 11.3469C61.7286 12.1747 61.3187 13.2844 61.3187 14.6746C61.3187 16.0647 61.7286 17.173 62.5485 18.0022C62.95 18.4106 63.4343 18.7324 63.972 18.9455C64.5083 19.1586 65.0867 19.2604 65.6665 19.2439C66.9257 19.2411 67.9604 18.8245 68.769 17.9967H68.7634Z" fill="#599240"/>
<path d="M78.3828 0.422145C78.8784 0.693032 79.2869 1.09043 79.5691 1.57032C79.8583 2.06672 80.0071 2.6305 80 3.20115C80.0057 3.77592 79.854 4.34245 79.5606 4.84022C79.2742 5.32837 78.8601 5.73264 78.3603 6.01178C77.8493 6.29367 77.2709 6.4408 76.6841 6.4408C76.0973 6.4408 75.5189 6.29367 75.0079 6.01178C74.5109 5.73264 74.0995 5.32837 73.816 4.84297C73.5254 4.34795 73.3752 3.78692 73.3808 3.21765C73.3752 2.64837 73.5254 2.08735 73.816 1.59232C74.101 1.10555 74.5137 0.702657 75.0121 0.42352C75.5287 0.145757 76.1071 0 76.6981 0C77.2892 0 77.8676 0.145757 78.3828 0.42352V0.422145ZM78.0444 5.50163C78.4488 5.27199 78.7829 4.94198 79.0103 4.54321C79.2476 4.13482 79.3711 3.67417 79.3683 3.20527C79.3753 2.73913 79.2574 2.27986 79.0244 1.87284C78.8025 1.48094 78.4726 1.15643 78.0725 0.935043C77.657 0.701282 77.1839 0.581652 76.7037 0.587152C76.2236 0.580277 75.7505 0.701282 75.335 0.935043C74.9335 1.16193 74.6035 1.48919 74.3775 1.88384C74.1445 2.29223 74.0266 2.75425 74.0322 3.22177C74.0266 3.68792 74.1473 4.14857 74.3789 4.55696C74.6035 4.95023 74.9321 5.27749 75.3308 5.50575C75.7449 5.73539 76.2138 5.85502 76.6911 5.85502C77.1684 5.85502 77.6373 5.73539 78.0515 5.50575L78.0444 5.50025V5.50163ZM78.2522 3.37441C78.1287 3.56416 77.9518 3.71542 77.7398 3.80755L78.5358 4.99423H77.5601L76.8764 3.97118H76.2292V4.99423H75.2535V1.45344H76.8399C77.2583 1.43144 77.6696 1.5552 78.0023 1.80133C78.1399 1.91271 78.2508 2.05297 78.3238 2.21248C78.3968 2.37198 78.4319 2.54524 78.4249 2.71988C78.4291 2.94951 78.3701 3.17777 78.2508 3.37716L78.2522 3.37441ZM76.7739 3.2589C76.9564 3.2699 77.1361 3.2204 77.285 3.11727C77.3453 3.06777 77.393 3.00589 77.4239 2.93576C77.4548 2.86563 77.4689 2.78863 77.4632 2.71163C77.4675 2.63462 77.4548 2.55762 77.4239 2.48611C77.393 2.41461 77.3453 2.35136 77.285 2.30048C77.1375 2.1946 76.9564 2.14372 76.7739 2.15335H76.2208V3.25753H76.7739V3.2589Z" fill="#599240"/>
<path d="M56.3306 31.7116C54.7821 31.7144 53.2491 31.4187 51.8171 30.8426C50.3866 30.2664 49.0866 29.4208 47.9916 28.3551C47.6602 28.0113 47.4791 27.5562 47.4862 27.0845C47.4932 26.6129 47.6883 26.1632 48.0309 25.8305C48.3734 25.4963 48.8353 25.3066 49.3196 25.2997C49.804 25.2928 50.2715 25.4688 50.6238 25.792C52.1386 27.2633 54.1897 28.0897 56.3306 28.0897C58.4715 28.0897 60.5226 27.2633 62.0374 25.792C62.3883 25.4633 62.8572 25.2818 63.3444 25.286C63.8315 25.2901 64.2976 25.4812 64.6416 25.8167C64.9869 26.1522 65.182 26.606 65.1863 27.0804C65.1919 27.5548 65.0052 28.0113 64.6682 28.3537C63.5746 29.4208 62.2746 30.2678 60.8427 30.844C59.4107 31.4201 57.8777 31.7158 56.3292 31.7144L56.3306 31.7116Z" fill="#599240"/>
</g>
<defs>
<clipPath id="clip0_7_25">
<rect width="80" height="32" fill="white"/>
</clipPath>
</defs>
</svg>
