<svg width="32" height="32" viewBox="0 0 32 32" fill="none" xmlns="http://www.w3.org/2000/svg">
<path d="M16 4C13.855 4 12.117 5.719 12.031 7.844C10.2379 8.60954 8.70981 9.886 7.63732 11.5142C6.56483 13.1424 5.99539 15.0503 6 17C6 17.172 5.992 17.36 6 17.563C4.816 18.258 4 19.535 4 21C4 23.2 5.8 25 8 25C8.574 25 9.129 24.879 9.625 24.656C11.359 26.113 13.617 27 16 27C18.383 27 20.64 26.113 22.375 24.656C22.871 24.879 23.425 25 24 25C26.2 25 28 23.2 28 21C28 19.52 27.176 18.223 25.969 17.531C25.984 17.371 26 17.207 26 17C26.0046 15.0503 25.4352 13.1424 24.3627 11.5142C23.2902 9.886 21.7621 8.60954 19.969 7.844C19.883 5.719 18.145 4 16 4ZM16 6C17.117 6 18 6.883 18 8C18 9.117 17.117 10 16 10C14.883 10 14 9.117 14 8C14 6.883 14.883 6 16 6ZM12.469 9.844C13.14 11.117 14.469 12 16 12C17.531 12 18.86 11.117 19.531 9.844C20.8734 10.4959 22.0047 11.5132 22.7952 12.7789C23.5857 14.0447 24.0033 15.5077 24 17C21.8 17 20 18.8 20 21C20 21.895 20.309 22.707 20.813 23.375C19.4255 24.4207 17.7374 24.9906 16 25C14.2626 24.9906 12.5745 24.4207 11.187 23.375C11.711 22.6939 11.9967 21.8594 12 21C12 18.8 10.2 17 8 17C7.99674 15.5077 8.41431 14.0447 9.20479 12.7789C9.99527 11.5132 11.1266 10.4959 12.469 9.844ZM8 19C9.117 19 10 19.883 10 21C10 22.117 9.117 23 8 23C6.883 23 6 22.117 6 21C6 19.883 6.883 19 8 19ZM24 19C25.117 19 26 19.883 26 21C26 22.117 25.117 23 24 23C22.883 23 22 22.117 22 21C22 19.883 22.883 19 24 19Z" fill="#292C2B"/>
</svg>
