<svg width="24" height="24" viewBox="0 0 24 24" fill="none" xmlns="http://www.w3.org/2000/svg">
<path fill-rule="evenodd" clip-rule="evenodd" d="M19.3125 12C19.3125 13.9394 18.5421 15.7994 17.1707 17.1707C15.7994 18.5421 13.9394 19.3125 12 19.3125C10.0606 19.3125 8.20064 18.5421 6.82928 17.1707C5.45792 15.7994 4.6875 13.9394 4.6875 12C4.6875 10.0606 5.45792 8.20064 6.82928 6.82928C8.20064 5.45792 10.0606 4.6875 12 4.6875C13.9394 4.6875 15.7994 5.45792 17.1707 6.82928C18.5421 8.20064 19.3125 10.0606 19.3125 12ZM21 12C21 14.3869 20.0518 16.6761 18.364 18.364C16.6761 20.0518 14.3869 21 12 21C9.61305 21 7.32387 20.0518 5.63604 18.364C3.94821 16.6761 3 14.3869 3 12C3 9.61305 3.94821 7.32387 5.63604 5.63604C7.32387 3.94821 9.61305 3 12 3C14.3869 3 16.6761 3.94821 18.364 5.63604C20.0518 7.32387 21 9.61305 21 12ZM8.94 7.7475C8.78005 7.59846 8.5685 7.51732 8.34991 7.52118C8.13132 7.52503 7.92276 7.61359 7.76818 7.76818C7.61359 7.92276 7.52503 8.13132 7.52118 8.34991C7.51732 8.5685 7.59846 8.78005 7.7475 8.94L15.06 16.2525C15.1372 16.3354 15.2304 16.4019 15.3339 16.448C15.4374 16.4941 15.5491 16.5189 15.6624 16.5209C15.7757 16.5229 15.8882 16.5021 15.9933 16.4596C16.0984 16.4172 16.1938 16.354 16.2739 16.2739C16.354 16.1938 16.4172 16.0984 16.4596 15.9933C16.5021 15.8882 16.5229 15.7757 16.5209 15.6624C16.5189 15.5491 16.4941 15.4374 16.448 15.3339C16.4019 15.2304 16.3354 15.1372 16.2525 15.06L8.94 7.7475Z" fill="#292C2B"/>
</svg>
