<svg width="24" height="24" viewBox="0 0 24 24" fill="none" xmlns="http://www.w3.org/2000/svg">
<path d="M7.48302 5.26008C6.92771 5.3216 6.40932 5.56839 6.01145 5.96063C5.61358 6.35287 5.35944 6.8677 5.29002 7.42208C4.93437 10.4631 4.93437 13.5351 5.29002 16.5761C5.35923 17.1306 5.61328 17.6457 6.01117 18.0381C6.40905 18.4306 6.92756 18.6775 7.48302 18.7391C10.46 19.0721 13.54 19.0721 16.517 18.7391C17.0723 18.6773 17.5906 18.4303 17.9883 18.0379C18.386 17.6454 18.6399 17.1305 18.709 16.5761C18.965 14.3911 19.037 12.1901 18.925 9.99608C18.9236 9.96802 18.9282 9.93999 18.9383 9.9138C18.9485 9.88761 18.9641 9.86385 18.984 9.84408L20.022 8.80408C20.0487 8.7768 20.0828 8.75783 20.12 8.74945C20.1573 8.74106 20.1962 8.74363 20.232 8.75684C20.2678 8.77005 20.2991 8.79334 20.3219 8.8239C20.3448 8.85446 20.3584 8.89099 20.361 8.92908C20.5571 11.5356 20.5028 14.1549 20.199 16.7511C19.984 18.5871 18.509 20.0261 16.683 20.2311C13.5706 20.5761 10.4295 20.5761 7.31702 20.2311C5.49002 20.0261 4.01502 18.5871 3.80102 16.7511C3.43172 13.5938 3.43172 10.4043 3.80102 7.24708C4.01502 5.41008 5.49102 3.97208 7.31702 3.76708C10.4295 3.42204 13.5706 3.42204 16.683 3.76708C17.3122 3.83773 17.9155 4.05711 18.443 4.40708C18.4666 4.42296 18.4863 4.44391 18.5007 4.4684C18.515 4.49289 18.5238 4.52029 18.5262 4.5486C18.5286 4.5769 18.5246 4.60538 18.5145 4.63194C18.5045 4.6585 18.4886 4.68247 18.468 4.70208L17.665 5.50508C17.6325 5.53677 17.5905 5.55709 17.5455 5.56304C17.5005 5.56898 17.4547 5.56023 17.415 5.53808C17.1362 5.3885 16.8314 5.29347 16.517 5.25808C13.5149 4.92532 10.4852 4.92532 7.48302 5.25808V5.26008Z" fill="#292C2B"/>
<path d="M21.03 6.02991C21.1037 5.96125 21.1628 5.87845 21.2038 5.78645C21.2447 5.69445 21.2668 5.59513 21.2686 5.49443C21.2703 5.39373 21.2518 5.2937 21.2141 5.20031C21.1764 5.10692 21.1202 5.02209 21.049 4.95087C20.9778 4.87965 20.893 4.82351 20.7996 4.78579C20.7062 4.74807 20.6062 4.72954 20.5054 4.73132C20.4047 4.73309 20.3054 4.75514 20.2134 4.79613C20.1214 4.83712 20.0386 4.89622 19.97 4.96991L11.5 13.4399L9.02997 10.9699C8.96131 10.8962 8.87851 10.8371 8.78651 10.7961C8.69451 10.7551 8.5952 10.7331 8.49449 10.7313C8.39379 10.7295 8.29376 10.7481 8.20037 10.7858C8.10698 10.8235 8.02215 10.8797 7.95093 10.9509C7.87971 11.0221 7.82357 11.1069 7.78585 11.2003C7.74813 11.2937 7.7296 11.3937 7.73138 11.4944C7.73316 11.5951 7.7552 11.6944 7.79619 11.7864C7.83718 11.8784 7.89628 11.9612 7.96997 12.0299L10.97 15.0299C11.1106 15.1704 11.3012 15.2492 11.5 15.2492C11.6987 15.2492 11.8893 15.1704 12.03 15.0299L21.03 6.02991Z" fill="#292C2B"/>
</svg>
