<svg width="24" height="24" viewBox="0 0 24 24" fill="none" xmlns="http://www.w3.org/2000/svg">
<path fill-rule="evenodd" clip-rule="evenodd" d="M13.2403 15.898C12.9591 16.1789 12.5778 16.3367 12.1803 16.3367C11.7828 16.3367 11.4016 16.1789 11.1203 15.898L5.46233 10.242C5.18106 9.96063 5.0231 9.57903 5.0232 9.18117C5.02329 8.78331 5.18143 8.40179 5.46282 8.12052C5.74422 7.83926 6.12582 7.6813 6.52368 7.6814C6.92154 7.68149 7.30306 7.83963 7.58432 8.12102L12.1803 12.717L16.7763 8.12102C17.0591 7.84765 17.4379 7.69628 17.8312 7.69951C18.2245 7.70274 18.6008 7.86032 18.8791 8.1383C19.1573 8.41628 19.3152 8.79243 19.3188 9.18572C19.3224 9.57902 19.1714 9.95799 18.8983 10.241L13.2413 15.899L13.2403 15.898Z" fill="#292C2B"/>
</svg>
