<svg width="24" height="24" viewBox="0 0 24 24" fill="none" xmlns="http://www.w3.org/2000/svg">
<path d="M8.46802 8.39506L8.46602 8.39606L8.46302 8.39806L8.46802 8.39506ZM18.422 8.20806C18.3525 8.14094 18.2753 8.0822 18.192 8.03306C18.0742 7.96368 17.9434 7.91921 17.8076 7.90239C17.6719 7.88557 17.5342 7.89677 17.403 7.93529C17.2718 7.97381 17.1499 8.03884 17.0448 8.12635C16.9397 8.21386 16.8537 8.32199 16.792 8.44406C16.4476 9.12298 15.9725 9.7272 15.394 10.2221C15.4827 9.72361 15.5276 9.21834 15.528 8.71206C15.5299 7.1722 15.1238 5.65933 14.3509 4.32748C13.578 2.99564 12.4659 1.89239 11.128 1.13006C10.9806 1.04629 10.8143 1.00138 10.6447 0.999569C10.4751 0.997754 10.3079 1.03909 10.1587 1.11969C10.0095 1.20028 9.88326 1.31749 9.79183 1.4603C9.70039 1.60311 9.64678 1.76683 9.63602 1.93606C9.58003 2.88416 9.33216 3.81102 8.90742 4.66051C8.48267 5.50999 7.8899 6.26441 7.16502 6.87806L6.93502 7.06506C6.17663 7.5753 5.50537 8.20436 4.94702 8.92806C4.07929 10.0212 3.47821 11.3014 3.19143 12.6673C2.90466 14.0332 2.94009 15.4471 3.29491 16.7969C3.64973 18.1467 4.31418 19.3952 5.23557 20.4435C6.15695 21.4918 7.30991 22.311 8.60302 22.8361C8.75484 22.8979 8.91952 22.9214 9.08257 22.9046C9.24562 22.8878 9.40203 22.8311 9.53805 22.7397C9.67407 22.6482 9.78552 22.5247 9.86259 22.38C9.93966 22.2354 9.97998 22.074 9.98002 21.9101C9.97918 21.8041 9.96233 21.6989 9.93002 21.5981C9.70628 20.7571 9.64184 19.8817 9.74002 19.0171C10.6865 20.8016 12.2056 22.2161 14.053 23.0331C14.2784 23.1338 14.5332 23.1474 14.768 23.0711C16.2275 22.5999 17.5423 21.7634 18.5874 20.6411C19.6326 19.5187 20.3734 18.1478 20.7396 16.6585C21.1057 15.1692 21.085 13.611 20.6793 12.132C20.2737 10.653 19.4967 9.30221 18.422 8.20806ZM14.517 21.0391C13.6453 20.5974 12.8763 19.9771 12.26 19.2187C11.6438 18.4603 11.194 17.5807 10.94 16.6371C10.8624 16.3193 10.8023 15.9975 10.76 15.6731C10.7316 15.4665 10.6392 15.274 10.496 15.1225C10.3527 14.971 10.1657 14.868 9.96102 14.8281C9.89809 14.8158 9.83412 14.8098 9.77002 14.8101C9.59432 14.8099 9.42167 14.856 9.26946 14.9438C9.11726 15.0316 8.99087 15.1579 8.90302 15.3101C8.07346 16.7413 7.65639 18.3743 7.69802 20.0281C6.96817 19.4608 6.35819 18.7542 5.90343 17.9494C5.44867 17.1447 5.15818 16.2576 5.04879 15.3397C4.9394 14.4218 5.0133 13.4913 5.26619 12.6022C5.51908 11.7131 5.94594 10.883 6.52202 10.1601C6.95944 9.5919 7.48711 9.09936 8.08402 8.70206C8.11014 8.6853 8.13519 8.66694 8.15902 8.64706C8.15902 8.64706 8.45502 8.40206 8.46502 8.39706C9.89022 7.1921 10.904 5.57253 11.365 3.76406C12.4544 4.77143 13.1808 6.11032 13.4312 7.57282C13.6817 9.03533 13.4422 10.5396 12.75 11.8521C12.6584 12.0272 12.6208 12.2256 12.6419 12.4222C12.663 12.6187 12.7419 12.8046 12.8686 12.9564C12.9953 13.1081 13.1641 13.2189 13.3537 13.2747C13.5434 13.3306 13.7453 13.3289 13.934 13.2701C15.4657 12.7897 16.8136 11.8516 17.796 10.5821C18.3867 11.4543 18.7729 12.4486 18.9259 13.4909C19.0788 14.5331 18.9946 15.5965 18.6794 16.6017C18.3642 17.6068 17.8262 18.5279 17.1055 19.2962C16.3848 20.0645 15.5 20.6603 14.517 21.0391Z" fill="#292C2B"/>
</svg>
