<svg width="24" height="24" viewBox="0 0 24 24" fill="none" xmlns="http://www.w3.org/2000/svg">
<path d="M12.0117 1.00781C13.0195 1.00781 13.9922 1.13672 14.9297 1.39453C15.8672 1.65234 16.7422 2.02344 17.5547 2.50781C18.3672 2.99219 19.1094 3.5625 19.7812 4.21875C20.4531 4.875 21.0273 5.61719 21.5039 6.44531C21.9805 7.27344 22.3477 8.15234 22.6055 9.08203C22.8633 10.0117 22.9961 10.9844 23.0039 12C23.0039 13.0078 22.875 13.9805 22.6172 14.918C22.3594 15.8555 21.9883 16.7305 21.5039 17.543C21.0195 18.3555 20.4492 19.1016 19.793 19.7812C19.1367 20.4609 18.3945 21.0352 17.5664 21.5039C16.7383 21.9727 15.8594 22.3398 14.9297 22.6055C14 22.8711 13.0273 23.0039 12.0117 23.0039C10.9961 23.0039 10.0195 22.875 9.08203 22.6172C8.14453 22.3594 7.26953 21.9883 6.45703 21.5039C5.64453 21.0195 4.90234 20.4453 4.23047 19.7812C3.55859 19.1172 2.98438 18.375 2.50781 17.5547C2.03125 16.7344 1.66406 15.8594 1.40625 14.9297C1.14844 14 1.01563 13.0234 1.00781 12C1.00781 10.9922 1.13672 10.0195 1.39453 9.08203C1.65234 8.14453 2.02344 7.26953 2.50781 6.45703C2.99219 5.64453 3.56641 4.90234 4.23047 4.23047C4.89453 3.55859 5.63672 2.98438 6.45703 2.50781C7.27734 2.03125 8.15234 1.66406 9.08203 1.40625C10.0117 1.14844 10.9883 1.01563 12.0117 1.00781ZM12.0117 21.3984C12.8789 21.3984 13.7109 21.2891 14.5078 21.0703C15.3047 20.8516 16.0547 20.5352 16.7578 20.1211C17.4609 19.707 18.0938 19.2148 18.6562 18.6445C19.2188 18.0742 19.707 17.4414 20.1211 16.7461C20.5352 16.0508 20.8516 15.3047 21.0703 14.5078C21.2891 13.7109 21.4023 12.875 21.4102 12C21.4102 11.1406 21.3008 10.3125 21.082 9.51562C20.8633 8.71875 20.5469 7.96875 20.1328 7.26562C19.7188 6.5625 19.2266 5.92969 18.6562 5.36719C18.0859 4.80469 17.4492 4.3125 16.7461 3.89062C16.043 3.46875 15.2969 3.15234 14.5078 2.94141C13.7187 2.73047 12.8867 2.61719 12.0117 2.60156C11.1445 2.60156 10.3125 2.71094 9.51562 2.92969C8.71875 3.14844 7.96875 3.46484 7.26562 3.87891C6.5625 4.29297 5.92969 4.78516 5.36719 5.35547C4.80469 5.92578 4.31641 6.55859 3.90234 7.25391C3.48828 7.94922 3.17187 8.69531 2.95312 9.49219C2.73438 10.2891 2.62109 11.125 2.61328 12C2.61328 12.8672 2.72266 13.6992 2.94141 14.4961C3.16016 15.293 3.47656 16.043 3.89062 16.7461C4.30469 17.4492 4.79297 18.082 5.35547 18.6445C5.91797 19.207 6.55469 19.6992 7.26562 20.1211C7.97656 20.543 8.72266 20.8555 9.50391 21.0586C10.2852 21.2617 11.1211 21.375 12.0117 21.3984ZM15.0117 9H17.0039V17.0039H9.01172V15H13.5938L7.30078 8.70703L8.71875 7.30078L15.0117 13.5938V9Z" fill="#292C2B"/>
</svg>
