<svg width="24" height="24" viewBox="0 0 24 24" fill="none" xmlns="http://www.w3.org/2000/svg">
<path d="M12 23.0039C10.9922 23.0039 10.0195 22.875 9.08203 22.6172C8.14453 22.3594 7.26953 21.9883 6.45703 21.5039C5.64453 21.0195 4.90234 20.4492 4.23047 19.793C3.55859 19.1367 2.98438 18.3945 2.50781 17.5664C2.03125 16.7383 1.66406 15.8594 1.40625 14.9297C1.14844 14 1.01563 13.0273 1.00781 12.0117C1.00781 11.0039 1.13672 10.0312 1.39453 9.09375C1.65235 8.15625 2.02344 7.28125 2.50781 6.46875C2.99219 5.65625 3.5625 4.91015 4.21875 4.23047C4.875 3.55078 5.61719 2.97656 6.44531 2.50781C7.27344 2.03906 8.15235 1.67187 9.08203 1.40625C10.0117 1.14062 10.9844 1.00781 12 1.00781C13.0156 1.00781 13.9922 1.13672 14.9297 1.39453C15.8672 1.65234 16.7422 2.02344 17.5547 2.50781C18.3672 2.99219 19.1094 3.56641 19.7813 4.23047C20.4531 4.89453 21.0273 5.63672 21.5039 6.45703C21.9805 7.27734 22.3477 8.15234 22.6055 9.08203C22.8633 10.0117 22.9961 10.9883 23.0039 12.0117C23.0039 13.0195 22.875 13.9922 22.6172 14.9297C22.3594 15.8672 21.9883 16.7422 21.5039 17.5547C21.0195 18.3672 20.4453 19.1094 19.7813 19.7812C19.1172 20.4531 18.375 21.0273 17.5547 21.5039C16.7344 21.9805 15.8594 22.3477 14.9297 22.6055C14 22.8633 13.0234 22.9961 12 23.0039ZM12 2.61328C11.1328 2.61328 10.3008 2.72266 9.50391 2.94141C8.70703 3.16016 7.95703 3.47656 7.25391 3.89062C6.55078 4.30469 5.91797 4.79687 5.35547 5.36719C4.79297 5.9375 4.30469 6.57031 3.89063 7.26562C3.47656 7.96094 3.16016 8.70703 2.94141 9.5039C2.72266 10.3008 2.60938 11.1367 2.60156 12.0117C2.60156 12.8711 2.71094 13.6992 2.92969 14.4961C3.14844 15.293 3.46484 16.043 3.87891 16.7461C4.29297 17.4492 4.78516 18.082 5.35547 18.6445C5.92578 19.207 6.5625 19.6992 7.26563 20.1211C7.96875 20.543 8.71484 20.8594 9.50391 21.0703C10.293 21.2812 11.125 21.3945 12 21.4102C12.8672 21.4102 13.6992 21.3008 14.4961 21.082C15.293 20.8633 16.043 20.5469 16.7461 20.1328C17.4492 19.7187 18.082 19.2266 18.6445 18.6562C19.207 18.0859 19.6953 17.4531 20.1094 16.7578C20.5234 16.0625 20.8398 15.3164 21.0586 14.5195C21.2773 13.7227 21.3906 12.8867 21.3984 12.0117C21.3984 11.1445 21.2891 10.3125 21.0703 9.51562C20.8516 8.71875 20.5352 7.96875 20.1211 7.26562C19.707 6.5625 19.2188 5.92969 18.6563 5.36719C18.0938 4.80469 17.457 4.3125 16.7461 3.89062C16.0352 3.46875 15.2891 3.15625 14.5078 2.95312C13.7266 2.75 12.8906 2.63672 12 2.61328ZM9 15.0117L7.00781 15.0117L7.00781 7.00781L15 7.00781L15 9.01172L10.418 9.01172L16.7109 15.3047L15.293 16.7109L9 10.418L9 15.0117Z" fill="#292C2B"/>
</svg>
