<svg width="24" height="24" viewBox="0 0 24 24" fill="none" xmlns="http://www.w3.org/2000/svg">
<path fill-rule="evenodd" clip-rule="evenodd" d="M12 2.7501C10.3424 2.7501 8.7527 3.40858 7.5806 4.58069C6.4085 5.75279 5.75002 7.3425 5.75002 9.0001C5.75002 10.6577 6.4085 12.2474 7.5806 13.4195C8.7527 14.5916 10.3424 15.2501 12 15.2501C13.6576 15.2501 15.2473 14.5916 16.4194 13.4195C17.5915 12.2474 18.25 10.6577 18.25 9.0001C18.25 7.3425 17.5915 5.75279 16.4194 4.58069C15.2473 3.40858 13.6576 2.7501 12 2.7501ZM4.25002 9.0001C4.25082 7.86772 4.49977 6.74926 4.97934 5.72344C5.45891 4.69762 6.15746 3.78935 7.02583 3.06255C7.89419 2.33575 8.91129 1.80808 10.0055 1.51665C11.0998 1.22523 12.2446 1.17714 13.3594 1.37577C14.4743 1.5744 15.532 2.01492 16.4583 2.66634C17.3845 3.31775 18.1568 4.16424 18.7207 5.14623C19.2846 6.12821 19.6265 7.22185 19.7222 8.35018C19.818 9.47851 19.6654 10.6141 19.275 11.6771L21.563 14.0451C21.82 14.3121 22.034 14.5341 22.194 14.7191C22.352 14.9011 22.514 15.1091 22.609 15.3511C22.943 16.1961 22.675 17.1961 21.87 17.6881C21.64 17.8301 21.376 17.8881 21.15 17.9261C20.918 17.9661 20.624 17.9961 20.277 18.0331L20.253 18.0351C19.794 18.0841 19.707 18.0991 19.648 18.1221C19.5555 18.1585 19.472 18.2147 19.4034 18.2867C19.3349 18.3588 19.2828 18.4449 19.251 18.5391C19.225 18.6091 19.21 18.7121 19.163 19.1831L19.161 19.2051C19.125 19.5661 19.095 19.8691 19.058 20.1071C19.022 20.3371 18.968 20.6011 18.835 20.8321C18.365 21.6541 17.376 21.9621 16.518 21.5991C16.277 21.4971 16.072 21.3261 15.898 21.1641C15.718 20.9981 15.505 20.7761 15.248 20.5091L15.228 20.4891L12 17.0901L8.76801 20.4951L8.75302 20.5101C8.49602 20.7771 8.28201 20.9991 8.10301 21.1651C7.92801 21.3271 7.72302 21.4981 7.48302 21.6001C6.62302 21.9631 5.63502 21.6551 5.16502 20.8331C5.03302 20.6021 4.97802 20.3391 4.94202 20.1071C4.90502 19.8701 4.87502 19.5671 4.84002 19.2071L4.83702 19.1841C4.79102 18.7131 4.77502 18.6111 4.75002 18.5401C4.71819 18.4459 4.66617 18.3598 4.5976 18.2877C4.52903 18.2157 4.44556 18.1595 4.35302 18.1231C4.29302 18.1001 4.20602 18.0851 3.74702 18.0361L3.72402 18.0341C3.37702 17.9971 3.08302 17.9661 2.85102 17.9271C2.62502 17.8901 2.36102 17.8311 2.13002 17.6891C1.32602 17.1971 1.05802 16.1971 1.39102 15.3521C1.48702 15.1101 1.64802 14.9021 1.80602 14.7201C1.96602 14.5351 2.18002 14.3131 2.43802 14.0461L4.72502 11.6781C4.40975 10.8205 4.24893 9.91382 4.25002 9.0001ZM5.42802 13.1091L3.53202 15.0721C3.25602 15.3581 3.07002 15.5501 2.94002 15.7011C2.88185 15.7622 2.83024 15.8292 2.78602 15.9011C2.69602 16.1311 2.78602 16.3251 2.90502 16.4041C2.91402 16.4071 2.96502 16.4241 3.09902 16.4471C3.27902 16.4771 3.52902 16.5041 3.90502 16.5441L3.98002 16.5521C4.32002 16.5871 4.62102 16.6191 4.89002 16.7221C5.48902 16.9521 5.94702 17.4321 6.16202 18.0341C6.25802 18.3031 6.28802 18.6071 6.32202 18.9611L6.33002 19.0361C6.36802 19.4251 6.39402 19.6851 6.42402 19.8761C6.45002 20.0381 6.47002 20.0901 6.47102 20.0931C6.55102 20.2281 6.71502 20.2941 6.89602 20.2181C6.89602 20.2181 6.94602 20.1911 7.08202 20.0641C7.22702 19.9301 7.41202 19.7391 7.68702 19.4541L7.68902 19.4521L10.409 16.5861C9.38756 16.3714 8.41993 15.9528 7.56406 15.3554C6.70818 14.7579 5.98167 13.9939 5.42802 13.1091ZM13.591 16.5871C14.6127 16.3724 15.5806 15.9537 16.4367 15.3561C17.2927 14.7585 18.0193 13.9942 18.573 13.1091L20.469 15.0721C20.745 15.3581 20.93 15.5501 21.06 15.7011C21.183 15.8411 21.211 15.8961 21.214 15.9011C21.304 16.1311 21.214 16.3251 21.096 16.4041C21.086 16.4071 21.036 16.4241 20.902 16.4471C20.721 16.4771 20.472 16.5041 20.095 16.5441L20.02 16.5521C19.681 16.5871 19.379 16.6191 19.11 16.7221C18.512 16.9521 18.053 17.4321 17.838 18.0341C17.742 18.3031 17.712 18.6071 17.678 18.9611L17.67 19.0361C17.632 19.4251 17.606 19.6851 17.576 19.8761C17.551 20.0381 17.53 20.0901 17.53 20.0931C17.45 20.2281 17.285 20.2951 17.103 20.2181H17.105C17.105 20.2181 17.055 20.1911 16.918 20.0641C16.7112 19.8659 16.5095 19.6625 16.313 19.4541L16.311 19.4521L13.591 16.5871ZM12.001 7.0341C11.942 7.1351 11.877 7.2511 11.801 7.3881L11.703 7.5641C11.6956 7.5774 11.6883 7.59074 11.681 7.6041C11.602 7.7481 11.472 7.9861 11.255 8.1511C11.034 8.3191 10.767 8.3771 10.612 8.4111L10.569 8.4201L10.378 8.4631C10.202 8.5031 10.06 8.5351 9.93801 8.5661C10.017 8.6631 10.12 8.7851 10.254 8.9421L10.384 9.0941L10.414 9.1281C10.522 9.2531 10.697 9.4531 10.777 9.7131C10.857 9.9691 10.829 10.2331 10.812 10.3991C10.8103 10.4148 10.8086 10.4304 10.807 10.4461L10.787 10.6491C10.7718 10.8023 10.7581 10.9556 10.746 11.1091C10.85 11.0631 10.968 11.0091 11.109 10.9441L11.288 10.8621L11.328 10.8421C11.472 10.7751 11.722 10.6581 12 10.6581C12.279 10.6581 12.528 10.7751 12.672 10.8431L12.712 10.8621L12.892 10.9441C13.032 11.0091 13.15 11.0641 13.255 11.1091C13.242 10.9557 13.228 10.8023 13.213 10.6491L13.193 10.4461C13.1914 10.4304 13.1898 10.4148 13.188 10.3991C13.171 10.2321 13.144 9.9691 13.223 9.7131C13.303 9.4531 13.478 9.2531 13.586 9.1281L13.616 9.0941L13.746 8.9421C13.88 8.7851 13.983 8.6631 14.063 8.5661C13.941 8.5361 13.798 8.5031 13.623 8.4631L13.432 8.4201L13.389 8.4101C13.233 8.3771 12.967 8.3191 12.745 8.1501C12.528 7.9861 12.398 7.7481 12.32 7.6051L12.297 7.5641L12.199 7.3881C12.123 7.2511 12.059 7.1351 12 7.0341H12.001ZM11.013 5.8001C11.185 5.5751 11.498 5.2501 11.999 5.2501C12.501 5.2501 12.814 5.5751 12.986 5.8001C13.15 6.0141 13.316 6.3111 13.486 6.6161L13.508 6.6571L13.607 6.8341L13.663 6.9341L13.762 6.9571L13.952 7.0001L14 7.0101C14.328 7.0851 14.653 7.1581 14.903 7.2571C15.18 7.3661 15.553 7.5771 15.698 8.0421C15.84 8.4971 15.661 8.8831 15.505 9.1321C15.36 9.3621 15.141 9.6181 14.915 9.8811L14.885 9.9161L14.755 10.0691L14.673 10.1661L14.685 10.3011L14.705 10.5041L14.709 10.5501C14.744 10.9021 14.777 11.2421 14.764 11.5141C14.752 11.8001 14.684 12.2321 14.296 12.5251C13.896 12.8291 13.456 12.7631 13.176 12.6821C12.918 12.6091 12.614 12.4681 12.306 12.3271L12.263 12.3071L12.084 12.2241C12.0557 12.2111 12.0274 12.1981 11.999 12.1851L11.914 12.2251L11.736 12.3071L11.692 12.3271C11.385 12.4681 11.08 12.6091 10.822 12.6821C10.542 12.7621 10.102 12.8291 9.70201 12.5251C9.31501 12.2321 9.24702 11.8001 9.23402 11.5151C9.22202 11.2421 9.25401 10.9021 9.28901 10.5501L9.29401 10.5041L9.31402 10.3011L9.32602 10.1661C9.29856 10.1336 9.27089 10.1013 9.24302 10.0691L9.11302 9.9161L9.08302 9.8811C8.85802 9.6181 8.63802 9.3611 8.49302 9.1311C8.33702 8.8831 8.15902 8.4971 8.30002 8.0411C8.44502 7.5781 8.81902 7.3661 9.09502 7.2571C9.34502 7.1581 9.67101 7.0851 9.99901 7.0111L10.045 7.0011L10.236 6.9571L10.336 6.9341L10.392 6.8341L10.49 6.6571L10.513 6.6161C10.683 6.3111 10.848 6.0141 11.013 5.8001Z" fill="#292C2B"/>
</svg>
