<svg width="16" height="17" viewBox="0 0 16 17" fill="none" xmlns="http://www.w3.org/2000/svg">
<path d="M6.53425 13.0685C7.95327 13.0685 9.26182 12.6097 10.3324 11.8449L14.3601 15.8725C14.547 16.0595 14.7934 16.1529 15.0568 16.1529C15.6091 16.1529 16 15.7281 16 15.1843C16 14.9294 15.915 14.683 15.7281 14.5045L11.726 10.4939C12.5672 9.38927 13.0685 8.02124 13.0685 6.53425C13.0685 2.93999 10.1285 0 6.53425 0C2.94849 0 0 2.93149 0 6.53425C0 10.1285 2.93999 13.0685 6.53425 13.0685ZM6.53425 11.658C3.73022 11.658 1.41052 9.33829 1.41052 6.53425C1.41052 3.73022 3.73022 1.41052 6.53425 1.41052C9.33829 1.41052 11.658 3.73022 11.658 6.53425C11.658 9.33829 9.33829 11.658 6.53425 11.658Z" fill="#292C2B"/>
</svg>
