<svg width="24" height="24" viewBox="0 0 24 24" fill="none" xmlns="http://www.w3.org/2000/svg">
<path d="M12 21C13.9969 20.9997 15.937 20.3353 17.5149 19.1114C19.0927 17.8874 20.2187 16.1735 20.7156 14.2394C21.2125 12.3053 21.052 10.2608 20.2594 8.42795C19.4669 6.59506 18.0872 5.0778 16.3377 4.11506C14.5882 3.15231 12.5682 2.79875 10.5957 3.11004C8.6232 3.42132 6.81024 4.37978 5.44225 5.83452C4.07425 7.28925 3.22892 9.15764 3.03932 11.1455C2.84973 13.1334 3.32665 15.1279 4.395 16.815L3 21L7.185 19.605C8.62453 20.5188 10.2949 21.0027 12 21Z" stroke="#292C2B" stroke-width="2" stroke-linecap="round" stroke-linejoin="round"/>
<path fill-rule="evenodd" clip-rule="evenodd" d="M12.5858 7.58579C12.9609 7.21071 13.4696 7 14 7C14.5304 7 15.0391 7.21071 15.4142 7.58579C15.7893 7.96086 16 8.46957 16 9C16 9.53043 15.7893 10.0391 15.4142 10.4142C15.0391 10.7893 14.5304 11 14 11C13.4696 11 12.9609 10.7893 12.5858 10.4142C12.549 10.3774 12.5137 10.3393 12.4801 10.3L9.95931 11.5986C9.98618 11.7297 10 11.8641 10 12C10 12.1359 9.98618 12.2703 9.95931 12.4014L12.4801 13.7C12.5137 13.6607 12.549 13.6226 12.5858 13.5858C12.9609 13.2107 13.4696 13 14 13C14.5304 13 15.0391 13.2107 15.4142 13.5858C15.7893 13.9609 16 14.4696 16 15C16 15.5304 15.7893 16.0391 15.4142 16.4142C15.0391 16.7893 14.5304 17 14 17C13.4696 17 12.9609 16.7893 12.5858 16.4142C12.2107 16.0391 12 15.5304 12 15C12 14.8641 12.0138 14.7297 12.0407 14.5986L9.5199 13.3C9.48629 13.3393 9.45104 13.3774 9.41421 13.4142C9.03914 13.7893 8.53043 14 8 14C7.46957 14 6.96086 13.7893 6.58579 13.4142C6.21071 13.0391 6 12.5304 6 12C6 11.4696 6.21071 10.9609 6.58579 10.5858C6.96086 10.2107 7.46957 10 8 10C8.53043 10 9.03914 10.2107 9.41421 10.5858C9.45104 10.6226 9.48629 10.6607 9.5199 10.7L12.0407 9.40144C12.0138 9.27031 12 9.13587 12 9C12 8.46957 12.2107 7.96086 12.5858 7.58579ZM13.1141 9.46392C13.1083 9.44946 13.1018 9.43515 13.0945 9.42102C13.0914 9.41509 13.0883 9.40924 13.085 9.40348C13.0295 9.27754 13 9.14029 13 9C13 8.73478 13.1054 8.48043 13.2929 8.29289C13.4804 8.10536 13.7348 8 14 8C14.2652 8 14.5196 8.10536 14.7071 8.29289C14.8946 8.48043 15 8.73478 15 9C15 9.26522 14.8946 9.51957 14.7071 9.70711C14.5196 9.89464 14.2652 10 14 10C13.7348 10 13.4804 9.89464 13.2929 9.70711C13.2207 9.63489 13.1606 9.55276 13.1141 9.46392ZM8.88588 11.5361C8.83936 11.4472 8.77933 11.3651 8.70711 11.2929C8.51957 11.1054 8.26522 11 8 11C7.73478 11 7.48043 11.1054 7.29289 11.2929C7.10536 11.4804 7 11.7348 7 12C7 12.2652 7.10536 12.5196 7.29289 12.7071C7.48043 12.8946 7.73478 13 8 13C8.26522 13 8.51957 12.8946 8.70711 12.7071C8.77933 12.6349 8.83936 12.5528 8.88588 12.4639C8.89169 12.4495 8.89823 12.4352 8.90551 12.421C8.90857 12.4151 8.91173 12.4092 8.91499 12.4035C8.97052 12.2775 9 12.1403 9 12C9 11.8597 8.97052 11.7225 8.91499 11.5965C8.91173 11.5908 8.90857 11.5849 8.90551 11.579C8.89823 11.5648 8.89169 11.5505 8.88588 11.5361ZM13.085 14.5965C13.0295 14.7225 13 14.8597 13 15C13 15.2652 13.1054 15.5196 13.2929 15.7071C13.4804 15.8946 13.7348 16 14 16C14.2652 16 14.5196 15.8946 14.7071 15.7071C14.8946 15.5196 15 15.2652 15 15C15 14.7348 14.8946 14.4804 14.7071 14.2929C14.5196 14.1054 14.2652 14 14 14C13.7348 14 13.4804 14.1054 13.2929 14.2929C13.2207 14.3651 13.1606 14.4472 13.1141 14.5361C13.1083 14.5505 13.1018 14.5649 13.0945 14.579C13.0914 14.5849 13.0883 14.5908 13.085 14.5965Z" fill="#292C2B"/>
</svg>
