<svg width="24" height="24" viewBox="0 0 24 24" fill="none" xmlns="http://www.w3.org/2000/svg">
<path fill-rule="evenodd" clip-rule="evenodd" d="M6.05546 15.0555C6.57118 14.5397 7.27065 14.25 8 14.25C8.72935 14.25 9.42882 14.5397 9.94454 15.0555C10.4603 15.5712 10.75 16.2707 10.75 17C10.75 17.7293 10.4603 18.4288 9.94454 18.9445C9.42882 19.4603 8.72935 19.75 8 19.75C7.27065 19.75 6.57118 19.4603 6.05546 18.9445C5.53973 18.4288 5.25 17.7293 5.25 17C5.25 16.2707 5.53973 15.5712 6.05546 15.0555ZM8 15.75C7.66848 15.75 7.35054 15.8817 7.11612 16.1161C6.8817 16.3505 6.75 16.6685 6.75 17C6.75 17.3315 6.8817 17.6495 7.11612 17.8839C7.35054 18.1183 7.66848 18.25 8 18.25C8.33152 18.25 8.64946 18.1183 8.88388 17.8839C9.1183 17.6495 9.25 17.3315 9.25 17C9.25 16.6685 9.1183 16.3505 8.88388 16.1161C8.64946 15.8817 8.33152 15.75 8 15.75ZM16.0555 15.0555C16.5712 14.5397 17.2707 14.25 18 14.25C18.7293 14.25 19.4288 14.5397 19.9445 15.0555C20.4603 15.5712 20.75 16.2707 20.75 17C20.75 17.7293 20.4603 18.4288 19.9445 18.9445C19.4288 19.4603 18.7293 19.75 18 19.75C17.2707 19.75 16.5712 19.4603 16.0555 18.9445C15.5397 18.4288 15.25 17.7293 15.25 17C15.25 16.2707 15.5397 15.5712 16.0555 15.0555ZM18 15.75C17.6685 15.75 17.3505 15.8817 17.1161 16.1161C16.8817 16.3505 16.75 16.6685 16.75 17C16.75 17.3315 16.8817 17.6495 17.1161 17.8839C17.3505 18.1183 17.6685 18.25 18 18.25C18.3315 18.25 18.6495 18.1183 18.8839 17.8839C19.1183 17.6495 19.25 17.3315 19.25 17C19.25 16.6685 19.1183 16.3505 18.8839 16.1161C18.6495 15.8817 18.3315 15.75 18 15.75Z" fill="#292C2B"/>
<path fill-rule="evenodd" clip-rule="evenodd" d="M0.25 6C0.25 5.58579 0.585786 5.25 1 5.25H14.4C14.758 5.25 15.1014 5.39223 15.3546 5.64541C15.6078 5.89858 15.75 6.24196 15.75 6.6V17.75H10.05C9.63579 17.75 9.3 17.4142 9.3 17C9.3 16.5858 9.63579 16.25 10.05 16.25H14.25V6.75H1C0.585786 6.75 0.25 6.41421 0.25 6ZM3 10.75C3.41421 10.75 3.75 11.0858 3.75 11.5V16.25H5.65C6.06421 16.25 6.4 16.5858 6.4 17C6.4 17.4142 6.06421 17.75 5.65 17.75H3.6C3.42272 17.75 3.24717 17.7151 3.08338 17.6472C2.91959 17.5794 2.77076 17.48 2.64541 17.3546C2.52005 17.2292 2.42061 17.0804 2.35276 16.9166C2.28492 16.7528 2.25 16.5773 2.25 16.4V11.5C2.25 11.0858 2.58579 10.75 3 10.75Z" fill="#292C2B"/>
<path fill-rule="evenodd" clip-rule="evenodd" d="M1.25 9C1.25 8.58579 1.58579 8.25 2 8.25H6C6.41421 8.25 6.75 8.58579 6.75 9C6.75 9.41421 6.41421 9.75 6 9.75H2C1.58579 9.75 1.25 9.41421 1.25 9Z" fill="#292C2B"/>
<path fill-rule="evenodd" clip-rule="evenodd" d="M14.25 9C14.25 8.58579 14.5858 8.25 15 8.25H20.61C20.871 8.25006 21.1265 8.32576 21.3453 8.46791C21.5641 8.61007 21.7371 8.8126 21.8432 9.051L23.633 13.0786C23.7097 13.2507 23.7496 13.4369 23.75 13.6253L23.75 13.627L23.75 16.4C23.75 16.5773 23.7151 16.7528 23.6472 16.9166C23.5794 17.0804 23.48 17.2292 23.3546 17.3546C23.2292 17.48 23.0804 17.5794 22.9166 17.6472C22.7528 17.7151 22.5773 17.75 22.4 17.75H20.5C20.0858 17.75 19.75 17.4142 19.75 17C19.75 16.5858 20.0858 16.25 20.5 16.25H22.25V13.6602L20.5124 9.75H15C14.5858 9.75 14.25 9.41421 14.25 9ZM22.263 13.6894C22.2631 13.6897 22.2629 13.6891 22.263 13.6894ZM14.25 17C14.25 16.5858 14.5858 16.25 15 16.25H16C16.4142 16.25 16.75 16.5858 16.75 17C16.75 17.4142 16.4142 17.75 16 17.75H15C14.5858 17.75 14.25 17.4142 14.25 17Z" fill="#292C2B"/>
</svg>
