<svg width="24" height="24" viewBox="0 0 24 24" fill="none" xmlns="http://www.w3.org/2000/svg">
<path d="M14.8 8L16 9.2L9.2 16L8 14.8L14.8 8ZM4 4H20C21.11 4 22 4.89 22 6V10C21.4696 10 20.9609 10.2107 20.5858 10.5858C20.2107 10.9609 20 11.4696 20 12C20 12.5304 20.2107 13.0391 20.5858 13.4142C20.9609 13.7893 21.4696 14 22 14V18C22 19.11 21.11 20 20 20H4C3.46957 20 2.96086 19.7893 2.58579 19.4142C2.21071 19.0391 2 18.5304 2 18V14C3.11 14 4 13.11 4 12C4 11.4696 3.78929 10.9609 3.41421 10.5858C3.03914 10.2107 2.53043 10 2 10V6C2 5.46957 2.21071 4.96086 2.58579 4.58579C2.96086 4.21071 3.46957 4 4 4ZM4 6V8.54C4.60768 8.8904 5.11236 9.39466 5.46325 10.0021C5.81415 10.6094 5.9989 11.2985 5.9989 12C5.9989 12.7015 5.81415 13.3906 5.46325 13.9979C5.11236 14.6053 4.60768 15.1096 4 15.46V18H20V15.46C19.3923 15.1096 18.8876 14.6053 18.5367 13.9979C18.1858 13.3906 18.0011 12.7015 18.0011 12C18.0011 11.2985 18.1858 10.6094 18.5367 10.0021C18.8876 9.39466 19.3923 8.8904 20 8.54V6H4ZM9.5 8C10.33 8 11 8.67 11 9.5C11 10.33 10.33 11 9.5 11C8.67 11 8 10.33 8 9.5C8 8.67 8.67 8 9.5 8ZM14.5 13C15.33 13 16 13.67 16 14.5C16 15.33 15.33 16 14.5 16C13.67 16 13 15.33 13 14.5C13 13.67 13.67 13 14.5 13Z" fill="#292C2B"/>
</svg>
