<svg width="24" height="24" viewBox="0 0 24 24" fill="none" xmlns="http://www.w3.org/2000/svg">
<path d="M15 11C15.2652 11 15.5196 10.8946 15.7071 10.7071C15.8946 10.5196 16 10.2652 16 10C16 9.73478 15.8946 9.48043 15.7071 9.29289C15.5196 9.10536 15.2652 9 15 9C14.7348 9 14.4804 9.10536 14.2929 9.29289C14.1054 9.48043 14 9.73478 14 10C14 10.2652 14.1054 10.5196 14.2929 10.7071C14.4804 10.8946 14.7348 11 15 11ZM10 10C10 10.2652 9.89464 10.5196 9.70711 10.7071C9.51957 10.8946 9.26522 11 9 11C8.73478 11 8.48043 10.8946 8.29289 10.7071C8.10536 10.5196 8 10.2652 8 10C8 9.73478 8.10536 9.48043 8.29289 9.29289C8.48043 9.10536 8.73478 9 9 9C9.26522 9 9.51957 9.10536 9.70711 9.29289C9.89464 9.48043 10 9.73478 10 10Z" fill="#292C2B"/>
<path fill-rule="evenodd" clip-rule="evenodd" d="M8.24999 5.276V5C8.24999 4.00544 8.64508 3.05161 9.34834 2.34835C10.0516 1.64509 11.0054 1.25 12 1.25C12.9946 1.25 13.9484 1.64509 14.6516 2.34835C15.3549 3.05161 15.75 4.00544 15.75 5V5.276C16.408 5.296 16.995 5.333 17.515 5.398C18.716 5.55 19.689 5.868 20.44 6.602C20.69 6.847 20.913 7.118 21.104 7.412C21.676 8.292 21.798 9.308 21.711 10.516C21.625 11.698 21.329 13.182 20.952 15.065L20.932 15.16C20.672 16.467 20.464 17.507 20.206 18.326C19.941 19.168 19.602 19.85 19.036 20.402C18.841 20.592 18.631 20.764 18.406 20.918C17.754 21.365 17.019 21.563 16.141 21.658C15.288 21.75 14.228 21.75 12.895 21.75H11.105C9.77199 21.75 8.71199 21.75 7.85899 21.658C6.98099 21.563 6.24599 21.365 5.59399 20.918C5.3696 20.7644 5.15882 20.5917 4.96399 20.402C4.39799 19.85 4.05899 19.168 3.79399 18.326C3.53699 17.507 3.32899 16.467 3.06699 15.16L3.04799 15.065C2.67199 13.182 2.37499 11.698 2.28999 10.516C2.20199 9.308 2.32399 8.292 2.89599 7.412C3.08679 7.11835 3.30948 6.8467 3.55999 6.602C4.31199 5.868 5.28399 5.55 6.48499 5.398C7.00499 5.333 7.59199 5.296 8.24999 5.276ZM9.74999 5C9.74999 4.40326 9.98705 3.83097 10.409 3.40901C10.831 2.98705 11.4033 2.75 12 2.75C12.5967 2.75 13.169 2.98705 13.591 3.40901C14.0129 3.83097 14.25 4.40326 14.25 5V5.252C13.826 5.25 13.378 5.25 12.905 5.25H11.095C10.622 5.25 10.175 5.25 9.74999 5.252V5ZM4.60799 7.675C5.02299 7.27 5.61599 7.02 6.67299 6.886C7.74299 6.751 9.16299 6.75 11.149 6.75H12.852C14.838 6.75 16.256 6.751 17.327 6.886C18.384 7.02 18.977 7.27 19.392 7.675C19.563 7.842 19.715 8.028 19.846 8.229C20.162 8.715 20.291 9.346 20.215 10.409C20.137 11.485 19.86 12.876 19.471 14.824C19.199 16.183 19.006 17.144 18.775 17.875C18.55 18.592 18.31 19.015 17.989 19.328C17.856 19.4577 17.7121 19.5758 17.559 19.681C17.189 19.934 16.727 20.086 15.98 20.167C15.217 20.249 14.237 20.25 12.851 20.25H11.15C9.76399 20.25 8.78399 20.249 8.01999 20.167C7.27399 20.087 6.81299 19.934 6.44299 19.681C6.28949 19.5755 6.1453 19.4571 6.01199 19.327C5.69099 19.014 5.45199 18.592 5.22599 17.875C4.99599 17.143 4.80199 16.183 4.53099 14.824C4.14099 12.876 3.86399 11.484 3.78699 10.408C3.70999 9.346 3.83899 8.715 4.15499 8.229C4.28545 8.02817 4.43771 7.84238 4.60899 7.675H4.60799Z" fill="#292C2B"/>
</svg>
