<svg width="32" height="32" viewBox="0 0 32 32" fill="none" xmlns="http://www.w3.org/2000/svg">
<path d="M25 18C26.105 18 27 16.21 27 14C27 11.79 26.105 10 25 10C23.895 10 23 11.79 23 14C23 16.21 23.895 18 25 18Z" fill="#292C2B"/>
<path d="M3.556 4.971C4.918 3.394 6.437 3 7 3H25C26.963 3 28.472 4.566 29.43 6.482C30.418 8.457 31 11.117 31 14C31 16.883 30.418 19.543 29.43 21.518C28.472 23.434 26.964 25 25 25H21V28C21 28.5304 20.7893 29.0391 20.4142 29.4142C20.0391 29.7893 19.5304 30 19 30H3C2.46957 30 1.96086 29.7893 1.58579 29.4142C1.21071 29.0391 1 28.5304 1 28V14C1 9.336 2.168 6.578 3.556 4.971ZM22.359 7.376C21.537 9.02 21 11.36 21 14C21 16.31 21.411 18.39 22.065 19.976C22.158 20.202 22.256 20.418 22.359 20.624C23.21 22.327 24.202 23 25 23C25.798 23 26.79 22.327 27.641 20.624C28.463 18.98 29 16.64 29 14C29 11.36 28.463 9.02 27.641 7.376C26.79 5.673 25.798 5 25 5C24.202 5 23.21 5.673 22.359 7.376ZM7 5C7.007 5 7.001 5.001 6.985 5.005C6.848 5.035 5.971 5.235 5.069 6.279C4.082 7.422 3 9.664 3 14V28H19V14C19 11.117 19.582 8.457 20.57 6.482C20.835 5.952 21.141 5.45 21.488 5H7Z" fill="#292C2B"/>
</svg>
