<svg width="24" height="24" viewBox="0 0 24 24" fill="none" xmlns="http://www.w3.org/2000/svg">
<path d="M7.913 14.2462C7.78658 14.1526 7.64291 14.0847 7.49022 14.0465C7.33752 14.0083 7.17878 14.0004 7.02305 14.0235C6.86733 14.0465 6.71768 14.1 6.58264 14.1807C6.4476 14.2615 6.32982 14.3681 6.23602 14.4943C6.14223 14.6205 6.07425 14.7639 6.03597 14.9164C5.9977 15.0688 5.98987 15.2273 6.01295 15.3828C6.03602 15.5383 6.08954 15.6877 6.17044 15.8225C6.25135 15.9573 6.35807 16.0749 6.4845 16.1686C8.07483 17.3557 10.0067 17.9981 11.9924 18C13.9781 17.9981 15.91 17.3557 17.5003 16.1686C17.6294 16.0761 17.7388 15.9588 17.8221 15.8237C17.9054 15.6886 17.961 15.5383 17.9856 15.3815C18.0102 15.2248 18.0033 15.0647 17.9653 14.9106C17.9273 14.7566 17.859 14.6116 17.7644 14.4841C17.6698 14.3566 17.5507 14.2492 17.4141 14.1681C17.2775 14.087 17.1262 14.0338 16.9688 14.0117C16.8114 13.9896 16.6512 13.9989 16.4975 14.0392C16.3438 14.0794 16.1996 14.1498 16.0734 14.2462C14.8958 15.1277 13.4642 15.6051 11.9924 15.607C10.5212 15.6047 9.09014 15.1274 7.913 14.2462Z" fill="#292C2B"/>
<path fill-rule="evenodd" clip-rule="evenodd" d="M12 1.25C11.275 1.25 10.613 1.45 9.89001 1.787C9.18801 2.114 8.37801 2.597 7.36201 3.202L5.90601 4.069C4.78701 4.736 3.89601 5.267 3.22001 5.775C2.52301 6.3 2.00001 6.84 1.66001 7.551C1.31801 8.262 1.22601 9.007 1.25501 9.876C1.28401 10.717 1.43101 11.74 1.61501 13.022L1.90801 15.054C2.14501 16.704 2.33401 18.013 2.61501 19.032C2.90501 20.082 3.31701 20.917 4.06001 21.556C4.80201 22.196 5.69001 22.481 6.77601 22.618C7.83201 22.75 9.16301 22.75 10.842 22.75H13.158C14.838 22.75 16.168 22.75 17.224 22.618C18.31 22.481 19.198 22.196 19.94 21.557C20.683 20.917 21.095 20.083 21.385 19.032C21.666 18.012 21.855 16.704 22.092 15.054L22.384 13.022C22.569 11.74 22.716 10.717 22.744 9.876C22.774 9.006 22.682 8.262 22.341 7.551C22 6.84 21.477 6.3 20.78 5.775C20.105 5.267 19.213 4.736 18.094 4.069L16.638 3.202C15.622 2.597 14.812 2.114 14.111 1.787C13.387 1.449 12.725 1.25 12 1.25ZM8.09601 4.511C9.15301 3.881 9.89901 3.438 10.524 3.146C11.133 2.862 11.571 2.75 12 2.75C12.43 2.75 12.867 2.862 13.476 3.146C14.101 3.438 14.846 3.881 15.904 4.511L17.289 5.336C18.454 6.03 19.275 6.52 19.879 6.974C20.466 7.417 20.789 7.783 20.989 8.199C21.188 8.615 21.271 9.093 21.246 9.825C21.22 10.575 21.086 11.516 20.894 12.851L20.614 14.788C20.368 16.502 20.192 17.716 19.939 18.633C19.692 19.529 19.394 20.048 18.962 20.42C18.529 20.793 17.968 21.013 17.037 21.13C16.086 21.249 14.849 21.25 13.107 21.25H10.894C9.15101 21.25 7.91401 21.249 6.96301 21.13C6.03301 21.013 5.47101 20.793 5.03801 20.42C4.60601 20.048 4.30801 19.529 4.06101 18.633C3.80801 17.716 3.63101 16.502 3.38501 14.788L3.10601 12.851C2.91401 11.516 2.78001 10.574 2.75401 9.825C2.72901 9.093 2.81201 8.615 3.01201 8.199C3.21201 7.783 3.53301 7.417 4.12201 6.974C4.72501 6.52 5.54601 6.03 6.71101 5.336L8.09601 4.511Z" fill="#292C2B"/>
</svg>
