<svg width="28" height="25" viewBox="0 0 28 25" fill="none" xmlns="http://www.w3.org/2000/svg">
<path d="M15 12C15.2652 12 15.5196 11.8946 15.7071 11.7071C15.8946 11.5196 16 11.2652 16 11C16 10.7348 15.8946 10.4804 15.7071 10.2929C15.5196 10.1054 15.2652 10 15 10C14.7348 10 14.4804 10.1054 14.2929 10.2929C14.1054 10.4804 14 10.7348 14 11C14 11.2652 14.1054 11.5196 14.2929 11.7071C14.4804 11.8946 14.7348 12 15 12ZM10 11C10 11.2652 9.89464 11.5196 9.70711 11.7071C9.51957 11.8946 9.26522 12 9 12C8.73478 12 8.48043 11.8946 8.29289 11.7071C8.10536 11.5196 8 11.2652 8 11C8 10.7348 8.10536 10.4804 8.29289 10.2929C8.48043 10.1054 8.73478 10 9 10C9.26522 10 9.51957 10.1054 9.70711 10.2929C9.89464 10.4804 10 10.7348 10 11Z" fill="#292C2B"/>
<path fill-rule="evenodd" clip-rule="evenodd" d="M8.24999 6.276V6C8.24999 5.00544 8.64508 4.05161 9.34834 3.34835C10.0516 2.64509 11.0054 2.25 12 2.25C12.9946 2.25 13.9484 2.64509 14.6516 3.34835C15.3549 4.05161 15.75 5.00544 15.75 6V6.276C16.408 6.296 16.995 6.333 17.515 6.398C18.716 6.55 19.689 6.868 20.44 7.602C20.69 7.847 20.913 8.118 21.104 8.412C21.676 9.292 21.798 10.308 21.711 11.516C21.625 12.698 21.329 14.182 20.952 16.065L20.932 16.16C20.672 17.467 20.464 18.507 20.206 19.326C19.941 20.168 19.602 20.85 19.036 21.402C18.841 21.592 18.631 21.764 18.406 21.918C17.754 22.365 17.019 22.563 16.141 22.658C15.288 22.75 14.228 22.75 12.895 22.75H11.105C9.77199 22.75 8.71199 22.75 7.85899 22.658C6.98099 22.563 6.24599 22.365 5.59399 21.918C5.3696 21.7644 5.15882 21.5917 4.96399 21.402C4.39799 20.85 4.05899 20.168 3.79399 19.326C3.53699 18.507 3.32899 17.467 3.06699 16.16L3.04799 16.065C2.67199 14.182 2.37499 12.698 2.28999 11.516C2.20199 10.308 2.32399 9.292 2.89599 8.412C3.08679 8.11835 3.30948 7.8467 3.55999 7.602C4.31199 6.868 5.28399 6.55 6.48499 6.398C7.00499 6.333 7.59199 6.296 8.24999 6.276ZM9.74999 6C9.74999 5.40326 9.98705 4.83097 10.409 4.40901C10.831 3.98705 11.4033 3.75 12 3.75C12.5967 3.75 13.169 3.98705 13.591 4.40901C14.0129 4.83097 14.25 5.40326 14.25 6V6.252C13.826 6.25 13.378 6.25 12.905 6.25H11.095C10.622 6.25 10.175 6.25 9.74999 6.252V6ZM4.60799 8.675C5.02299 8.27 5.61599 8.02 6.67299 7.886C7.74299 7.751 9.16299 7.75 11.149 7.75H12.852C14.838 7.75 16.256 7.751 17.327 7.886C18.384 8.02 18.977 8.27 19.392 8.675C19.563 8.842 19.715 9.028 19.846 9.229C20.162 9.715 20.291 10.346 20.215 11.409C20.137 12.485 19.86 13.876 19.471 15.824C19.199 17.183 19.006 18.144 18.775 18.875C18.55 19.592 18.31 20.015 17.989 20.328C17.856 20.4577 17.7121 20.5758 17.559 20.681C17.189 20.934 16.727 21.086 15.98 21.167C15.217 21.249 14.237 21.25 12.851 21.25H11.15C9.76399 21.25 8.78399 21.249 8.01999 21.167C7.27399 21.087 6.81299 20.934 6.44299 20.681C6.28949 20.5755 6.1453 20.4571 6.01199 20.327C5.69099 20.014 5.45199 19.592 5.22599 18.875C4.99599 18.143 4.80199 17.183 4.53099 15.824C4.14099 13.876 3.86399 12.484 3.78699 11.408C3.70999 10.346 3.83899 9.715 4.15499 9.229C4.28545 9.02817 4.43771 8.84238 4.60899 8.675H4.60799Z" fill="#292C2B"/>
<circle cx="22.5" cy="6.5" r="5.5" fill="#599240"/>
<path d="M21.1055 3.76416C20.9336 3.99333 20.8512 4.29948 20.8584 4.68262H19.4297C19.444 4.2959 19.5103 3.92887 19.6284 3.58154C19.7537 3.27718 19.9507 2.99609 20.2192 2.73828C20.4198 2.55566 20.6579 2.41602 20.9336 2.31934C21.2093 2.22266 21.5477 2.17432 21.9487 2.17432C22.6935 2.17432 23.2933 2.36768 23.748 2.75439C24.2064 3.13753 24.4355 3.65316 24.4355 4.30127C24.4355 4.7596 24.2995 5.14632 24.0273 5.46143C23.8555 5.65837 23.6764 5.79264 23.4902 5.86426C23.6299 5.86426 23.8304 5.98421 24.0918 6.22412C24.4821 6.58577 24.6772 7.07992 24.6772 7.70654C24.6772 8.3654 24.4481 8.94548 23.9897 9.44678C23.535 9.9445 22.86 10.1934 21.9648 10.1934C20.862 10.1934 20.0957 9.8335 19.666 9.11377C19.4404 8.73063 19.3151 8.22933 19.29 7.60986H20.7939C20.7939 7.92139 20.8441 8.1792 20.9443 8.3833C21.1305 8.75928 21.4689 8.94727 21.9595 8.94727C22.2603 8.94727 22.5216 8.84521 22.7437 8.64111C22.9692 8.43343 23.082 8.13623 23.082 7.74951C23.082 7.23747 22.8743 6.89551 22.459 6.72363C22.2227 6.62695 21.8503 6.57861 21.3418 6.57861V5.48291C21.8395 5.47575 22.1868 5.42741 22.3838 5.33789C22.724 5.1875 22.894 4.88314 22.894 4.4248C22.894 4.1276 22.8063 3.8859 22.6309 3.69971C22.459 3.51351 22.2155 3.42041 21.9004 3.42041C21.5387 3.42041 21.2738 3.53499 21.1055 3.76416Z" fill="white"/>
</svg>
