<svg width="24" height="24" viewBox="0 0 24 24" fill="none" xmlns="http://www.w3.org/2000/svg">
<path fill-rule="evenodd" clip-rule="evenodd" d="M7.5 6.5C6.94773 6.5 6.5 6.94773 6.5 7.5V22C6.5 22.5523 6.05228 23 5.5 23C4.94772 23 4.5 22.5523 4.5 22V7.5C4.5 5.84317 5.84317 4.5 7.5 4.5C9.15683 4.5 10.5 5.84317 10.5 7.5V16.694L21.2124 19.0228C21.6721 19.1228 22 19.5296 22 20V22C22 22.5523 21.5523 23 21 23C20.4477 23 20 22.5523 20 22V20.806L9.28757 18.4772C8.82788 18.3772 8.5 17.9704 8.5 17.5V7.5C8.5 6.94773 8.05227 6.5 7.5 6.5Z" fill="#292C2B"/>
<path fill-rule="evenodd" clip-rule="evenodd" d="M7.5 3C5.01472 3 3 5.01472 3 7.5C3 9.40643 4.18587 11.0383 5.86377 11.6936C6.37821 11.8945 6.63239 12.4744 6.43149 12.9888C6.23059 13.5033 5.65068 13.7574 5.13623 13.5565C2.71677 12.6117 1 10.2576 1 7.5C1 3.91015 3.91015 1 7.5 1C11.0898 1 14 3.91015 14 7.5C14 10.2576 12.2832 12.6117 9.86376 13.5565C9.34931 13.7574 8.76941 13.5033 8.56851 12.9888C8.36761 12.4744 8.62179 11.8945 9.13624 11.6936C10.8142 11.0383 12 9.40643 12 7.5C12 5.01472 9.98527 3 7.5 3Z" fill="#292C2B"/>
</svg>
