<svg width="24" height="24" viewBox="0 0 24 24" fill="none" xmlns="http://www.w3.org/2000/svg">
<path fill-rule="evenodd" clip-rule="evenodd" d="M7.78497 1.83669C9.12108 1.28261 10.5536 0.998263 12 1.00001C13.4464 0.998263 14.8789 1.28261 16.2151 1.83669C17.5512 2.39078 18.7646 3.20368 19.7853 4.22858C20.806 5.24877 21.6154 6.46037 22.1671 7.79394C22.7189 9.12793 23.0019 10.5577 23 12.0014C22.9993 18.076 18.0748 23 12 23C5.92495 23 1.00038 18.0757 1.00001 12.0007C0.998156 10.5573 1.28121 9.12773 1.83294 7.79394C2.3846 6.46034 3.19401 5.24872 4.21478 4.22852C5.2355 3.20365 6.44884 2.39077 7.78497 1.83669ZM4.96174 6.38845C4.4359 7.04661 4.00435 7.7769 3.68106 8.55843C3.35765 9.34027 3.14714 10.1624 3.05443 11H4.00001C4.55229 11 5.00001 11.4477 5.00001 12C5.00001 12.5523 4.55229 13 4.00001 13H3.05493C3.55235 17.5001 7.3673 21 12 21C16.6327 21 20.4477 17.5001 20.9451 13H20C19.4477 13 19 12.5523 19 12C19 11.4477 19.4477 11 20 11H20.9456C20.8529 10.1624 20.6424 9.34027 20.319 8.55843C19.9957 7.7769 19.5641 7.04661 19.0383 6.38845L18.2196 7.20712C17.8291 7.59764 17.1959 7.59764 16.8054 7.20712C16.4149 6.81659 16.4149 6.18343 16.8054 5.7929L17.6255 4.97285C16.9658 4.44367 16.2332 4.00937 15.4489 3.68413C14.6649 3.359 13.8403 3.14746 13 3.05445V4.00001C13 4.55229 12.5523 5.00001 12 5.00001C11.4477 5.00001 11 4.55229 11 4.00001V3.05445C10.1597 3.14746 9.33511 3.359 8.55109 3.68413C7.7668 4.00937 7.03425 4.44367 6.37457 4.97285L7.19462 5.7929C7.58514 6.18343 7.58514 6.81659 7.19462 7.20712C6.80409 7.59764 6.17093 7.59764 5.7804 7.20712L4.96174 6.38845ZM12 9.00001C12.5523 9.00001 13 9.44772 13 10V16C13 16.5523 12.5523 17 12 17C11.4477 17 11 16.5523 11 16V10C11 9.44772 11.4477 9.00001 12 9.00001Z" fill="#292C2B"/>
<path fill-rule="evenodd" clip-rule="evenodd" d="M5.66959 18.3972C7.29646 20.0074 9.53205 21 12 21C14.468 21 16.7036 20.0074 18.3304 18.3972C16.3532 17.4757 14.193 16.9966 12.0016 17H11.9984C9.80697 16.9966 7.64684 17.4757 5.66959 18.3972ZM12 15C9.04619 14.9957 6.14264 15.7644 3.57792 17.2298C3.32689 17.3732 3.15022 17.6182 3.09347 17.9017C3.03672 18.1852 3.10543 18.4794 3.28189 18.7084C5.29152 21.3165 8.44915 23 12 23C15.5509 23 18.7085 21.3165 20.7181 18.7084C20.8946 18.4794 20.9633 18.1852 20.9066 17.9017C20.8498 17.6182 20.6731 17.3732 20.4221 17.2297C17.8574 15.7644 14.9538 14.9957 12 15Z" fill="#292C2B"/>
</svg>
