<svg width="16" height="16" viewBox="0 0 16 16" fill="none" xmlns="http://www.w3.org/2000/svg">
<path fill-rule="evenodd" clip-rule="evenodd" d="M8.00001 9.73328C8.45972 9.73328 8.9006 9.55067 9.22566 9.2256C9.55073 8.90054 9.73335 8.45966 9.73335 7.99995C9.73335 7.54024 9.55073 7.09936 9.22566 6.7743C8.9006 6.44924 8.45972 6.26662 8.00001 6.26662C7.5403 6.26662 7.09942 6.44924 6.77436 6.7743C6.4493 7.09936 6.26668 7.54024 6.26668 7.99995C6.26668 8.45966 6.4493 8.90054 6.77436 9.2256C7.09942 9.55067 7.5403 9.73328 8.00001 9.73328ZM8.00001 10.8C8.36771 10.8 8.73181 10.7275 9.07153 10.5868C9.41124 10.4461 9.71991 10.2399 9.97991 9.97985C10.2399 9.71985 10.4462 9.41118 10.5869 9.07146C10.7276 8.73175 10.8 8.36765 10.8 7.99995C10.8 7.63225 10.7276 7.26815 10.5869 6.92844C10.4462 6.58873 10.2399 6.28006 9.97991 6.02005C9.71991 5.76005 9.41124 5.5538 9.07153 5.41309C8.73181 5.27238 8.36771 5.19995 8.00001 5.19995C7.25741 5.19995 6.54521 5.49495 6.02011 6.02005C5.49501 6.54515 5.20001 7.25734 5.20001 7.99995C5.20001 8.74256 5.49501 9.45475 6.02011 9.97985C6.54521 10.505 7.25741 10.8 8.00001 10.8Z" fill="#292C2B"/>
</svg>
