<svg width="24" height="24" viewBox="0 0 24 24" fill="none" xmlns="http://www.w3.org/2000/svg">
<path d="M21.4676 9.08325C21.8325 8.09775 21.9379 7.158 21.6757 6.31463C21.555 6.3255 21.4297 6.33112 21.3015 6.33112C17.4607 6.33112 10.6725 1.50225 10.1587 0.75C8.04187 3.83362 3.60487 6.20438 1.59937 8.86313C0.787867 9.939 0.382117 10.7396 1.18949 11.9704L9.64537 22.8353C10.0267 23.3516 10.7741 23.3936 11.3062 22.9174C11.3062 22.9174 18.2407 14.019 23.2504 11.2657C22.8739 10.5304 22.2472 9.7965 21.4676 9.08325ZM9.49799 20.5328L9.46274 20.5571L9.43087 20.5849C9.30161 20.7008 9.18679 20.8319 9.08887 20.9752L1.76212 11.5616C1.23449 10.7452 1.38412 10.3155 2.16074 9.2865C3.04162 8.11913 4.44937 6.98588 5.93999 5.78625C7.48949 4.539 9.08549 3.255 10.2577 1.794C12.1927 3.38625 17.6051 6.90187 21.1072 7.0305C21.5272 11.1544 12.9765 18.1065 9.49799 20.5328Z" fill="#292C2B"/>
<path d="M7.49739 5.30915L16.9493 12.7154L17.286 12.4139L7.74339 5.08865L7.49739 5.30915ZM10.5776 9.25152L6.70914 6.01452C6.70914 6.01452 5.36289 6.87402 3.73239 8.75915L7.16439 12.3074L10.5776 9.25152ZM2.10226 10.5224L9.40276 19.4703L10.7509 18.2639L2.96739 9.36477C2.96739 9.36477 2.28901 9.7319 2.10226 10.5224ZM10.2825 11.0354L14.5234 14.8866L15.8708 13.6803L11.4551 9.98577L10.2825 11.0354ZM7.93727 13.135L11.8286 17.299L13.1756 16.093L9.10989 12.0854L7.93727 13.135ZM10.4464 4.0334L9.87452 5.63915L10.233 5.90015L12.0536 4.27002L11.6974 4.04577L10.443 5.1689L10.9976 3.60365L10.6256 3.3689L8.89052 4.92215L9.20139 5.14827L10.4464 4.0334ZM12.0045 7.19202L12.3518 6.8804L11.2924 6.1274L11.7728 5.69765L12.7136 6.3419L13.0478 6.04227L12.0964 5.40702L12.4931 5.05227L13.5465 5.73365L13.8885 5.42802L12.432 4.50852L10.5878 6.15965L12.0045 7.19202ZM13.1329 8.01402L14.5725 7.14215L15.0439 6.84365L14.7311 7.2479L13.8049 8.50452L14.2523 8.8304L17.0228 7.40577L16.497 7.0739L14.9779 7.94315L14.5901 8.1779L14.8504 7.83552L15.7508 6.6029L15.2453 6.28415L13.8409 7.15452L13.4678 7.3904L13.7246 7.06377L14.5751 5.86115L14.1011 5.5619L12.7283 7.71927L13.1329 8.01402ZM18.3401 8.13927C17.9993 7.92515 17.6809 7.82277 17.3831 7.82877C17.0876 7.83515 16.8454 7.92402 16.6545 8.09502C16.4449 8.28252 16.3744 8.47715 16.4434 8.6789C16.4839 8.80002 16.6129 8.97515 16.833 9.2069L17.0606 9.44615C17.1964 9.58715 17.2838 9.70265 17.322 9.79115C17.3595 9.88077 17.3411 9.95915 17.2673 10.0251C17.1409 10.138 16.9763 10.1594 16.7741 10.0904C16.6485 10.0427 16.5301 9.97773 16.4224 9.89727C16.2086 9.74502 16.1048 9.5984 16.1074 9.45702C16.1089 9.37977 16.1513 9.29127 16.2341 9.19152L15.7425 8.84877C15.5209 9.04715 15.4369 9.2684 15.4924 9.51402C15.5483 9.7619 15.7384 10.0064 16.0684 10.2471C16.3973 10.4883 16.7246 10.6173 17.0464 10.6315C17.3715 10.6454 17.6393 10.5599 17.8455 10.3743C18.048 10.1935 18.12 9.99927 18.0623 9.79265C18.0255 9.66027 17.9224 9.50615 17.7559 9.33065L17.3828 8.9369C17.2406 8.7884 17.1559 8.68527 17.127 8.6264C17.082 8.53677 17.0981 8.45765 17.1758 8.38865C17.2601 8.3129 17.3681 8.28215 17.5001 8.29527C17.634 8.3084 17.7735 8.36202 17.9194 8.45577C18.0518 8.54127 18.1451 8.62977 18.1973 8.72127C18.2779 8.85927 18.2554 8.9924 18.1316 9.11877L18.6855 9.48365C18.9158 9.26165 18.9878 9.02652 18.9019 8.7794C18.8179 8.53452 18.63 8.32077 18.3401 8.13927Z" fill="#292C2B"/>
</svg>
