<svg width="24" height="24" viewBox="0 0 24 24" fill="none" xmlns="http://www.w3.org/2000/svg">
<path fill-rule="evenodd" clip-rule="evenodd" d="M16.06 10.9399C16.3409 11.2212 16.4987 11.6024 16.4987 11.9999C16.4987 12.3974 16.3409 12.7787 16.06 13.0599L10.404 18.7179C10.1226 18.9992 9.74102 19.1571 9.34316 19.157C8.9453 19.1569 8.56377 18.9988 8.28251 18.7174C8.00125 18.436 7.84329 18.0544 7.84338 17.6566C7.84348 17.2587 8.00162 16.8772 8.28301 16.5959L12.879 11.9999L8.28301 7.40391C8.00964 7.12114 7.85827 6.7423 7.8615 6.34901C7.86473 5.95571 8.0223 5.57941 8.30028 5.30117C8.57827 5.02292 8.95441 4.86499 9.34771 4.86139C9.741 4.85779 10.12 5.0088 10.403 5.28191L16.061 10.9389L16.06 10.9399Z" fill="#292C2B"/>
</svg>
