<svg width="16" height="16" viewBox="0 0 16 16" fill="none" xmlns="http://www.w3.org/2000/svg">
<mask id="mask0_6702_5648" style="mask-type:luminance" maskUnits="userSpaceOnUse" x="1" y="1" width="14" height="14">
<path fill-rule="evenodd" clip-rule="evenodd" d="M2 5H14L13.3333 14H2.66667L2 5Z" fill="white"/>
<path fill-rule="evenodd" clip-rule="evenodd" d="M1.51148 4.54626C1.63762 4.41043 1.81461 4.33325 1.99998 4.33325H14C14.1853 4.33325 14.3623 4.41043 14.4885 4.54626C14.6146 4.68209 14.6785 4.86431 14.6648 5.04917L13.9982 14.0492C13.9724 14.3973 13.6824 14.6666 13.3333 14.6666H2.66665C2.31756 14.6666 2.02759 14.3973 2.0018 14.0492L1.33514 5.04917C1.32144 4.86431 1.38534 4.68209 1.51148 4.54626ZM2.71786 5.66659L3.28576 13.3333H12.7142L13.2821 5.66659H2.71786Z" fill="white"/>
<path fill-rule="evenodd" clip-rule="evenodd" d="M4.66663 1.99992C4.66663 1.63173 4.9651 1.33325 5.33329 1.33325H10.6666C11.0348 1.33325 11.3333 1.63173 11.3333 1.99992V6.33325C11.3333 6.70144 11.0348 6.99992 10.6666 6.99992C10.2984 6.99992 9.99996 6.70144 9.99996 6.33325V2.66659H5.99996V6.33325C5.99996 6.70144 5.70148 6.99992 5.33329 6.99992C4.9651 6.99992 4.66663 6.70144 4.66663 6.33325V1.99992Z" fill="white"/>
<path fill-rule="evenodd" clip-rule="evenodd" d="M4.66663 11.3332C4.66663 10.965 4.9651 10.6665 5.33329 10.6665H10.6666C11.0348 10.6665 11.3333 10.965 11.3333 11.3332C11.3333 11.7014 11.0348 11.9998 10.6666 11.9998H5.33329C4.9651 11.9998 4.66663 11.7014 4.66663 11.3332Z" fill="black"/>
</mask>
<g mask="url(#mask0_6702_5648)">
<path d="M0 0H16V16H0V0Z" fill="#292C2B"/>
<path fill-rule="evenodd" clip-rule="evenodd" d="M8 7.75C8.41421 7.75 8.75 8.08579 8.75 8.5V13.5C8.75 13.9142 8.41421 14.25 8 14.25C7.58579 14.25 7.25 13.9142 7.25 13.5V8.5C7.25 8.08579 7.58579 7.75 8 7.75Z" fill="white"/>
</g>
</svg>
