<svg width="16" height="17" viewBox="0 0 16 17" fill="none" xmlns="http://www.w3.org/2000/svg">
<path d="M11.9999 14.5001H4.66659V5.83341L9.33325 1.16675L10.1666 2.00008C10.2444 2.07786 10.3084 2.18341 10.3586 2.31675C10.4088 2.45008 10.4337 2.57786 10.4333 2.70008V2.93341L9.69992 5.83341H13.9999C14.3555 5.83341 14.6666 5.96675 14.9333 6.23341C15.1999 6.50008 15.3333 6.81119 15.3333 7.16675V8.50008C15.3333 8.57786 15.3221 8.66119 15.2999 8.75008C15.2777 8.83897 15.2555 8.9223 15.2333 9.00008L13.2333 13.7001C13.1333 13.9223 12.9666 14.1112 12.7333 14.2667C12.4999 14.4223 12.2555 14.5001 11.9999 14.5001ZM5.99992 13.1667H11.9999L13.9999 8.50008V7.16675H7.99992L8.89992 3.50008L5.99992 6.40008V13.1667ZM4.66659 5.83341V7.16675H2.66659V13.1667H4.66659V14.5001H1.33325V5.83341H4.66659Z" fill="black"/>
</svg>
